{"accessors":[{"bufferView":0,"componentType":5123,"count":2880,"max":[481],"min":[0],"type":"SCALAR"},{"bufferView":1,"componentType":5126,"count":482,"max":[1.000000238418579,1.0,1.0000003576278687],"min":[-0.9999998211860657,-1.0,-0.9999991655349731],"type":"VEC3"},{"bufferView":2,"componentType":5126,"count":482,"max":[1.0,1.0,1.0],"min":[-1.0,-1.0,-1.0],"type":"VEC3"}],"asset":{"generator":"Khronos Blender glTF 2.0 exporter","version":"2.0"},"bufferViews":[{"buffer":0,"byteLength":5760,"byteOffset":0,"target":34963},{"buffer":0,"byteLength":5784,"byteOffset":5760,"target":34962},{"buffer":0,"byteLength":5784,"byteOffset":11544,"target":34962}],"buffers":[{"byteLength":17328,"uri":"data:application/octet-stream;base64,"}],"meshes":[{"name":"Sphere.004","primitives":[{"attributes":{"NORMAL":2,"POSITION":1},"indices":0}]}],"nodes":[{"mesh":0,"name":"Moon","rotation":[0.28334158658981323,0.38387471437454224,-0.3243001103401184,0.8168153166770935],"scale":[9.0,9.0,9.0]}],"scene":0,"scenes":[{"name":"Scene","nodes":[0]}]}
